<svg width="24" height="25" viewBox="0 0 24 25" fill="none" xmlns="http://www.w3.org/2000/svg">
<path d="M11.9907 5.82678C10.3562 5.82678 8.78876 6.47605 7.63305 7.63176C6.47734 8.78748 5.82806 10.355 5.82806 11.9894C5.82806 13.6238 6.47734 15.1913 7.63305 16.347C8.78876 17.5027 10.3562 18.152 11.9907 18.152C13.6251 18.152 15.1926 17.5027 16.3483 16.347C17.504 15.1913 18.1533 13.6238 18.1533 11.9894C18.1533 10.355 17.504 8.78748 16.3483 7.63176C15.1926 6.47605 13.6251 5.82678 11.9907 5.82678ZM11.9907 15.9916C10.9288 15.9916 9.91053 15.5698 9.15972 14.819C8.40891 14.0682 7.9871 13.0499 7.9871 11.988C7.9871 10.9262 8.40891 9.90792 9.15972 9.1571C9.91053 8.40629 10.9288 7.98449 11.9907 7.98449C13.0525 7.98449 14.0708 8.40629 14.8216 9.1571C15.5724 9.90792 15.9942 10.9262 15.9942 11.988C15.9942 13.0499 15.5724 14.0682 14.8216 14.819C14.0708 15.5698 13.0525 15.9916 11.9907 15.9916Z" fill="#404040"/>
<path d="M18.3972 7.03684C19.1906 7.03684 19.8339 6.39361 19.8339 5.60015C19.8339 4.80668 19.1906 4.16345 18.3972 4.16345C17.6037 4.16345 16.9605 4.80668 16.9605 5.60015C16.9605 6.39361 17.6037 7.03684 18.3972 7.03684Z" fill="#404040"/>
<path d="M23.3643 4.13949C23.0558 3.34276 22.5843 2.61921 21.98 2.01518C21.3758 1.41115 20.652 0.939944 19.8552 0.631719C18.9227 0.281684 17.9376 0.0924138 16.9418 0.0719679C15.6584 0.0159928 15.2519 0 11.9973 0C8.74278 0 8.32563 -1.34051e-07 7.05287 0.0719679C6.05783 0.0913684 5.07342 0.280677 4.14216 0.631719C3.34509 0.939584 2.62119 1.41067 2.01688 2.01474C1.41258 2.61882 0.94122 3.34255 0.633052 4.13949C0.282947 5.0719 0.0941109 6.05709 0.0746335 7.05287C0.0173256 8.33496 0 8.74145 0 11.9973C0 15.2519 -9.92969e-09 15.6664 0.0746335 16.9418C0.0946246 17.9387 0.282541 18.9223 0.633052 19.8565C0.942085 20.6532 1.4139 21.3766 2.01835 21.9806C2.6228 22.5846 3.3466 23.0559 4.14349 23.3643C5.07299 23.7284 6.0578 23.9312 7.05553 23.964C8.33896 24.02 8.74545 24.0373 12 24.0373C15.2546 24.0373 15.6717 24.0373 16.9445 23.964C17.9402 23.9438 18.9252 23.755 19.8578 23.4056C20.6545 23.0967 21.378 22.625 21.9822 22.0208C22.5864 21.4167 23.058 20.6931 23.3669 19.8965C23.7175 18.9636 23.9054 17.98 23.9254 16.9831C23.9827 15.701 24 15.2945 24 12.0387C24 8.78276 24 8.36961 23.9254 7.09418C23.9099 6.08433 23.72 5.08474 23.3643 4.13949ZM21.741 16.8432C21.7324 17.6112 21.5922 18.3722 21.3265 19.0928C21.1264 19.6111 20.82 20.0817 20.427 20.4745C20.0341 20.8672 19.5632 21.1733 19.0449 21.3732C18.3322 21.6376 17.5793 21.7778 16.8192 21.7877C15.5531 21.8463 15.1959 21.861 11.9494 21.861C8.70013 21.861 8.36828 21.861 7.07819 21.7877C6.31843 21.7784 5.56596 21.6381 4.85384 21.3732C4.33366 21.1746 3.86095 20.869 3.46631 20.4762C3.07167 20.0834 2.76389 19.6121 2.56286 19.0928C2.30091 18.3799 2.16079 17.628 2.14838 16.8685C2.09107 15.6024 2.07774 15.2452 2.07774 11.9987C2.07774 8.75078 2.07774 8.41893 2.14838 7.1275C2.15699 6.35987 2.29719 5.5994 2.56286 4.87917C2.96935 3.82763 3.80231 3 4.85384 2.59751C5.56631 2.33382 6.31856 2.19364 7.07819 2.18303C8.34562 2.12572 8.70147 2.10973 11.9494 2.10973C15.1972 2.10973 15.5304 2.10973 16.8192 2.18303C17.5794 2.19218 18.3323 2.33239 19.0449 2.59751C19.5632 2.79779 20.034 3.10422 20.4269 3.49715C20.8198 3.89008 21.1262 4.36082 21.3265 4.87917C21.5885 5.59211 21.7286 6.34406 21.741 7.10351C21.7983 8.37095 21.813 8.72679 21.813 11.9747C21.813 15.2212 21.813 15.5704 21.7557 16.8445H21.741V16.8432Z" fill="#404040"/>
</svg>
